<?xml version="1.0" encoding="UTF-8"?>
<svg version="1.1" id="Capa_1" xmlns="http://www.w3.org/2000/svg" xmlns:xlink="http://www.w3.org/1999/xlink" x="0px" y="0px"
	 viewBox="0 0 425.2 425.2" style="enable-background:new 0 0 425.2 425.2;" xml:space="preserve">
<g>
		<path style="fill:#F7F8F8;" d="M195.133,155.863l30.948-0.045c1.23-0.003,2.229-1.143,2.229-2.556
			c-0.006-1.407-1.005-2.551-2.233-2.552l-30.948,0.049c-1.227,0.001-2.222,1.147-2.221,2.554
			C192.909,154.726,193.908,155.865,195.133,155.863z"/>
		<path style="fill:#F7F8F8;" d="M195.122,148.731l30.95-0.047c1.23-0.003,2.23-1.157,2.226-2.558
			c-0.003-1.414-1.001-2.559-2.233-2.557l-3.31,0.006l-3.344-6.777c0,0-1.608-2.181-2.443-2.415
			c-0.819-0.241-10.349-1.286-13.3,0.018c0,0-1.439,0.415-2.558,2.598c-0.868,1.664-2.69,5.08-3.509,6.611l-2.486,0.004
			c-1.225,0.002-2.221,1.152-2.218,2.565C192.899,147.583,193.896,148.733,195.122,148.731z"/>
		<path style="fill:#F7F8F8;" d="M195.144,163l30.948-0.048c1.233-0.002,2.23-1.146,2.227-2.557
			c-0.002-1.415-1.002-2.557-2.232-2.554l-30.948,0.046c-1.227,0.003-2.22,1.146-2.22,2.562
			C192.921,161.86,193.918,163.002,195.144,163z"/>
		<g>
			<path style="fill:#ED9E00;" d="M153.364,187.508c2.607,1.299,5.216,2.598,7.824,3.896c1.518,0.758,3.639,0.461,4.47-1.205
				c0.006-0.014,0.013-0.027,0.02-0.044c0.76-1.522,0.461-3.64-1.203-4.468c-2.611-1.3-5.218-2.599-7.825-3.898
				c-1.472-0.845-3.68-0.395-4.468,1.202c-0.322,0.561-0.457,1.225-0.41,1.877C151.809,185.945,152.313,186.98,153.364,187.508z"/>
			<path style="fill:#ED9E00;" d="M255.701,190.152c0.845,1.668,2.971,1.92,4.482,1.158c2.605-1.306,5.209-2.611,7.811-3.919
				c1.049-0.528,1.533-1.559,1.566-2.633c0.041-0.661-0.098-1.335-0.428-1.894c-0.795-1.601-3.03-2.015-4.481-1.158
				c-2.605,1.308-5.206,2.612-7.814,3.917c-1.666,0.84-1.92,2.98-1.158,4.484C255.688,190.124,255.695,190.137,255.701,190.152z"/>
			<path style="fill:#ED9E00;" d="M150.865,228.768c2.854-0.599,5.702-1.195,8.554-1.798c0.803-0.171,1.419-0.653,1.825-1.277
				c0.21-0.304,0.352-0.639,0.432-0.995c0.154-0.565,0.176-1.171,0.054-1.741c-0.01-0.033-0.018-0.07-0.024-0.107
				c-0.352-1.605-1.515-2.322-2.759-2.363c-0.385-0.059-0.807-0.045-1.255,0.055c-2.84,0.636-5.686,1.273-8.527,1.91
				C145.032,223.377,146.758,229.632,150.865,228.768z"/>
			<path style="fill:#ED9E00;" d="M259.683,223.293c-0.285,1.502,0.363,3.111,2.304,3.52c2.843,0.637,5.689,1.27,8.529,1.906
				c1.666,0.375,3.632-0.498,4.019-2.299c0.008-0.035,0.017-0.074,0.022-0.109c0.358-1.662-0.485-3.637-2.299-4.016
				c-2.85-0.6-5.701-1.199-8.553-1.8C261.506,220.007,259.993,221.578,259.683,223.293z"/>
			<path style="fill:#ED9E00;" d="M169.482,262.975c0.022,0.02,0.047,0.037,0.067,0.057c1.273,1.023,3.439,1.465,4.63-0.03
				c1.813-2.28,3.626-4.561,5.441-6.842c1.11-1.394,1.342-3.278-0.032-4.631c-0.074-0.073-0.153-0.143-0.24-0.209
				c-1.227-0.977-3.342-1.072-4.402,0.231c-1.829,2.266-3.661,4.531-5.494,6.797C168.422,259.62,167.992,261.779,169.482,262.975z"
				/>
			<path style="fill:#ED9E00;" d="M241.877,256.122c1.813,2.281,3.629,4.561,5.443,6.837c1.197,1.511,3.378,0.977,4.631-0.029
				c0.022-0.018,0.042-0.036,0.067-0.054c1.497-1.202,0.986-3.379-0.033-4.63c-1.835-2.261-3.673-4.522-5.511-6.785
				c-0.6-0.753-1.572-1.017-2.513-0.922c-0.805,0.08-1.589,0.419-2.116,0.956c-0.545,0.552-0.821,1.179-0.894,1.821
				C240.845,254.29,241.2,255.292,241.877,256.122z"/>
			<path style="fill:#ED9E00;" d="M210.702,277.616c0.018-0.003,0.034-0.003,0.049-0.004c1.772-0.002,3.295-1.463,3.294-3.252
				c-0.003-2.914-0.01-5.832-0.013-8.743c-0.003-1.774-1.466-3.294-3.258-3.293c-0.018,0.002-0.032,0.001-0.047,0.001
				c-0.928,0-1.657,0.319-2.18,0.814c-0.663,0.524-1.114,1.337-1.11,2.439c0.001,2.915,0.007,5.83,0.014,8.739
				C207.449,276.095,208.912,277.615,210.702,277.616z"/>
		</g>
		<g>
			<path style="fill:#F8BF39;" d="M200.061,207.944c-0.313,0.632-0.37,1.116-0.172,1.439c0.194,0.319,0.397,0.481,0.6,0.481
				c0.458-0.001,1.088-0.635,1.39-1.233c0.445-0.883,0.398-1.98,0.232-2.923C201.132,206.413,200.441,207.166,200.061,207.944z"/>
			<path style="fill:#F8BF39;" d="M213.355,209.182c-0.212,0.461-0.282,1.331-0.053,1.686c0.042,0.073,0.091,0.109,0.214,0.111
				c0.086-0.002,0.239-0.021,0.474-0.121c0.571-0.236,1.063-0.754,1.363-1.422c0.549-1.224,0.612-2.386,0.203-3.36
				c-0.078,0.092-0.157,0.187-0.234,0.282C214.588,207.254,213.827,208.176,213.355,209.182z"/>
			<path style="fill:#F8BF39;" d="M223.212,195.427c-4.203-9.018-7.837-19.075-11.102-30.713l-4.692,0.007
				c-3.032,10.934-6.385,20.452-10.246,29.063c3.081,1.426,5.479,4.105,6.82,7.604c2.125-0.873,4.294-1.184,6.607-0.956
				c1.936,0.188,3.572,0.653,4.868,1.373C216.709,200.328,219.665,197.136,223.212,195.427z"/>
			<path style="fill:#F8BF39;" d="M230.237,201.057c0.064,0.007,0.136,0.013,0.203,0.012c0.387,0,0.843-0.155,0.928-0.489
				c0.167-0.669-0.164-1.285-0.472-1.681c-0.76-0.974-2.178-1.706-3.298-1.702c-0.092-0.001-0.184,0.005-0.269,0.017
				c0.248,0.512,0.506,1.018,0.766,1.528C228.616,199.808,229.271,200.91,230.237,201.057z"/>
			<path style="fill:#F8BF39;" d="M190.331,200.182l0.013,0.004c0.103-0.001,0.417-0.131,1.141-1.314l0.058-0.095
				c0.452-0.895,0.902-1.813,1.369-2.789c-1.021,0.107-1.871,0.465-2.389,1.02c-0.452,0.482-0.651,1.122-0.598,1.899
				C189.983,199.789,190.212,200.12,190.331,200.182z"/>
			<path style="fill:#F8BF39;" d="M210.76,254.825c23.023-0.036,41.662-18.731,41.626-41.754
				c-0.023-16.786-9.972-31.232-24.279-37.819l-0.013-8.099c-0.002-1.359-1.105-2.462-2.471-2.459l-10.451,0.014
				c3.203,11.302,6.755,21.058,10.843,29.773c2.354-0.445,4.435,0.114,6.146,1.646c1.194,1.065,2.333,2.917,2.19,4.646
				c-0.088,1.068-0.652,1.961-1.632,2.578c-0.703,0.443-1.442,0.669-2.195,0.671c-2.309,0.005-4.141-2.083-5.013-3.866
				c-0.334-0.658-0.665-1.324-0.993-1.994c-2.394,1.145-4.84,3.132-6.836,5.558c0.571,0.799,0.937,1.723,1.077,2.764
				c0.249,1.77-0.63,4.392-1.997,5.965c-1.473,1.691-3.354,1.99-5.036,0.772c-0.935-0.677-1.476-1.521-1.606-2.507
				c-0.297-2.271,1.675-4.681,3.109-6.442c0.067-0.077,0.132-0.154,0.192-0.234c-0.403-0.176-0.845-0.318-1.317-0.413
				c-2.506-0.52-4.747-0.455-6.399,0.195c-0.305,0.118-0.605,0.244-0.904,0.377c0.122,0.615,0.219,1.223,0.274,1.814
				c0.253,2.592-0.464,4.479-2.254,5.942c-0.688,0.561-1.584,0.885-2.46,0.882c-0.861,0.004-1.608-0.299-2.16-0.876
				c-0.976-1.018-1.409-2.165-1.296-3.425c0.23-2.508,2.532-4.426,3.514-5.135c0.285-0.205,0.582-0.407,0.887-0.601
				c-0.755-2.097-2.345-5.215-5.335-6.389c-0.61,1.288-1.231,2.563-1.856,3.798c-0.043,0.086-0.095,0.17-0.155,0.248
				c-0.545,0.832-1.965,2.694-3.718,2.697c-0.642,0-1.244-0.242-1.788-0.722c-1.679-1.477-1.745-3.983-1.07-5.812
				c0.844-2.281,3.083-3.645,5.994-3.65c0.305,0,0.611,0.015,0.918,0.043c3.77-8.347,7.067-17.619,10.058-28.289l-8.724,0.014
				c-1.365,0.003-2.465,1.108-2.465,2.471l0.01,8.098c-14.283,6.628-24.189,21.105-24.165,37.886
				C169.045,236.219,187.739,254.857,210.76,254.825z"/>
		</g>
        <rect x="209.743" style="fill:#FFFFFF;" width="1.996" height="136.074"/>
	</g>
</svg>