<?xml version="1.0" encoding="UTF-8"?>
<svg version="1.1" id="Capa_1" xmlns="http://www.w3.org/2000/svg" xmlns:xlink="http://www.w3.org/1999/xlink" x="0px" y="0px"
	 viewBox="0 0 425.2 425.2" style="enable-background:new 0 0 425.2 425.2;" xml:space="preserve">
<g>
		<path style="fill:#F7F8F8;" d="M332.351,200.755l30.948-0.045c1.23-0.003,2.229-1.143,2.229-2.556
			c-0.006-1.407-1.005-2.551-2.233-2.552l-30.948,0.049c-1.227,0.001-2.222,1.147-2.221,2.554
			C330.127,199.617,331.126,200.757,332.351,200.755z"/>
		<path style="fill:#F7F8F8;" d="M332.34,193.623l30.95-0.047c1.23-0.003,2.229-1.157,2.225-2.558
			c-0.003-1.414-1.001-2.559-2.233-2.557l-3.31,0.006l-3.344-6.777c0,0-1.608-2.181-2.443-2.415
			c-0.819-0.241-10.349-1.286-13.3,0.018c0,0-1.44,0.415-2.558,2.598c-0.868,1.664-2.69,5.08-3.509,6.611l-2.486,0.004
			c-1.225,0.002-2.221,1.152-2.218,2.565C330.117,192.475,331.114,193.625,332.34,193.623z"/>
		<path style="fill:#F7F8F8;" d="M332.361,207.892l30.948-0.048c1.233-0.002,2.23-1.146,2.227-2.557
			c-0.002-1.415-1.002-2.557-2.232-2.554l-30.948,0.046c-1.227,0.003-2.22,1.146-2.22,2.562
			C330.139,206.752,331.136,207.893,332.361,207.892z"/>
		<g>
			<path style="fill:none;stroke:#FFFFFF;stroke-miterlimit:10;" d="M337.278,252.836c-0.313,0.632-0.37,1.116-0.172,1.439
				c0.194,0.319,0.397,0.481,0.6,0.481c0.458-0.001,1.088-0.635,1.39-1.233c0.445-0.883,0.398-1.98,0.232-2.923
				C338.35,251.305,337.659,252.058,337.278,252.836z"/>
			<path style="fill:none;stroke:#FFFFFF;stroke-miterlimit:10;" d="M350.573,254.073c-0.212,0.461-0.282,1.331-0.053,1.686
				c0.042,0.073,0.091,0.109,0.214,0.111c0.086-0.002,0.239-0.021,0.474-0.121c0.571-0.236,1.064-0.754,1.363-1.422
				c0.549-1.224,0.612-2.386,0.203-3.36c-0.078,0.092-0.157,0.187-0.234,0.282C351.806,252.145,351.045,253.067,350.573,254.073z"/>
			<path style="fill:none;stroke:#FFFFFF;stroke-miterlimit:10;" d="M360.43,240.318c-4.203-9.018-7.837-19.075-11.102-30.713
				l-4.692,0.007c-3.032,10.934-6.385,20.452-10.246,29.063c3.081,1.426,5.478,4.105,6.82,7.604
				c2.125-0.873,4.294-1.184,6.606-0.956c1.937,0.188,3.572,0.653,4.868,1.373C353.927,245.22,356.883,242.027,360.43,240.318z"/>
			<path style="fill:none;stroke:#FFFFFF;stroke-miterlimit:10;" d="M367.455,245.948c0.064,0.007,0.136,0.013,0.203,0.012
				c0.387,0,0.843-0.155,0.928-0.489c0.167-0.669-0.164-1.285-0.472-1.681c-0.76-0.974-2.178-1.706-3.298-1.702
				c-0.092-0.001-0.184,0.005-0.268,0.017c0.248,0.512,0.506,1.018,0.766,1.528C365.834,244.699,366.489,245.802,367.455,245.948z"
				/>
			<path style="fill:none;stroke:#FFFFFF;stroke-miterlimit:10;" d="M327.549,245.073l0.013,0.004
				c0.103-0.001,0.417-0.131,1.141-1.314l0.058-0.095c0.452-0.895,0.902-1.813,1.369-2.789c-1.022,0.107-1.871,0.465-2.389,1.02
				c-0.452,0.482-0.651,1.122-0.598,1.899C327.201,244.681,327.43,245.012,327.549,245.073z"/>
			<path style="fill:none;stroke:#FFFFFF;stroke-miterlimit:10;" d="M347.978,299.717c23.023-0.036,41.662-18.732,41.626-41.754
				c-0.022-16.786-9.972-31.232-24.279-37.819l-0.013-8.099c-0.002-1.359-1.105-2.462-2.471-2.459L352.39,209.6
				c3.203,11.302,6.755,21.058,10.843,29.773c2.354-0.445,4.435,0.114,6.147,1.646c1.194,1.065,2.333,2.917,2.19,4.646
				c-0.088,1.068-0.652,1.961-1.632,2.578c-0.703,0.443-1.442,0.669-2.195,0.671c-2.31,0.005-4.141-2.083-5.013-3.866
				c-0.334-0.658-0.665-1.324-0.993-1.994c-2.393,1.145-4.84,3.132-6.836,5.558c0.571,0.799,0.937,1.723,1.077,2.764
				c0.249,1.77-0.63,4.392-1.997,5.965c-1.473,1.691-3.353,1.99-5.036,0.773c-0.935-0.677-1.475-1.522-1.606-2.507
				c-0.297-2.271,1.675-4.681,3.109-6.442c0.067-0.077,0.132-0.154,0.192-0.234c-0.403-0.176-0.845-0.318-1.317-0.413
				c-2.506-0.52-4.747-0.455-6.399,0.195c-0.305,0.118-0.605,0.244-0.904,0.377c0.122,0.615,0.219,1.223,0.274,1.814
				c0.253,2.592-0.464,4.479-2.254,5.942c-0.688,0.561-1.584,0.885-2.46,0.882c-0.861,0.004-1.608-0.299-2.16-0.876
				c-0.976-1.019-1.409-2.165-1.296-3.425c0.23-2.508,2.532-4.426,3.514-5.135c0.285-0.205,0.582-0.407,0.887-0.601
				c-0.755-2.097-2.345-5.215-5.335-6.389c-0.61,1.288-1.232,2.563-1.857,3.798c-0.043,0.086-0.095,0.17-0.155,0.248
				c-0.545,0.832-1.965,2.694-3.718,2.697c-0.642,0-1.244-0.242-1.788-0.722c-1.679-1.477-1.745-3.983-1.07-5.812
				c0.844-2.281,3.083-3.645,5.994-3.65c0.305,0,0.611,0.015,0.918,0.043c3.771-8.347,7.067-17.619,10.058-28.289l-8.724,0.014
				c-1.365,0.003-2.465,1.108-2.465,2.471l0.01,8.098c-14.283,6.628-24.189,21.105-24.165,37.886
				C306.263,281.11,324.957,299.749,347.978,299.717z"/>
		</g>
        <rect x="346.411" style="fill:#ffffff;" width="1.996" height="183.258"/>
	</g>

</svg>